<svg width="338" height="770" viewBox="0 0 338 770" fill="none" xmlns="http://www.w3.org/2000/svg">
<mask id="mask0_7_95" style="mask-type:alpha" maskUnits="userSpaceOnUse" x="0" y="0" width="338" height="770">
<path d="M0 0H21.125H42.25L61.4545 19.6789L84.5 0H105.625L126.494 9.08257L147.875 0H169H190.125L207.921 24.2202L232.375 0L254.012 15.1376L274.625 0H295.75L307.785 19.6789L338 0V770L313.93 754.358L288.324 770H249.787L228.918 744.266L211.25 770L189.485 765.459L169 770L148.003 758.395L126.75 770L102.424 731.147L84.5 770L64.5273 751.33L42.25 770L20.997 741.743L0 770V0Z" fill="#282221"/>
</mask>
<g mask="url(#mask0_7_95)">
<rect width="338" height="771.009" fill="#282221"/>
</g>
</svg>
